<svg xmlns="http://www.w3.org/2000/svg" version="1.1" xmlns:xlink="http://www.w3.org/1999/xlink" width="162" height="219"><svg width="162" height="219" viewBox="0 0 162 219" fill="none" xmlns="http://www.w3.org/2000/svg">
<path d="M140.181 40.6846C140.302 40.4948 140.421 40.3027 140.538 40.1082C140.624 39.9647 140.71 39.8198 140.794 39.6737C145.765 31.0644 145.141 21.3989 139.402 18.0851C133.904 14.9108 125.705 18.7166 120.656 26.6102C120.623 26.6612 120.591 26.7125 120.558 26.7639L120.464 26.9151L120.365 27.0759C120.319 27.1507 120.273 27.2259 120.228 27.3015C120.154 27.4246 120.082 27.5486 120.009 27.6737C115.039 36.2829 115.662 45.9483 121.402 49.262C126.912 52.4434 135.135 48.6138 140.181 40.6846ZM145.301 7.86701C135.843 2.40632 121.59 9.33966 113.263 23.3662C103.49 19.6352 92.5501 17.5464 81 17.5465C69.3222 17.5465 58.2678 19.6816 48.4134 23.4905C40.0967 9.38068 25.7874 2.39021 16.3013 7.86701C6.73541 13.3898 5.69647 29.499 13.9808 43.8477C14.6787 45.0566 15.4206 46.2144 16.1997 47.3179C9.71564 56.1945 6 66.5234 6 77.5465C6 89.354 10.2634 100.365 17.6258 109.648L6.07153 206.735C5.38922 212.468 13.356 214.603 15.6317 209.297L48.8766 131.78C58.6136 135.478 69.5048 137.546 81 137.546C122.421 137.546 156 110.684 156 77.5465C156 66.4085 152.206 55.9796 145.597 47.0411C146.305 46.0212 146.982 44.9559 147.622 43.8477C155.906 29.499 154.867 13.3898 145.301 7.86701ZM41.5931 27.6737C41.4142 27.364 41.2307 27.0598 41.0425 26.7614C36.0016 18.7653 27.7338 14.8907 22.2008 18.0851C16.4612 21.3989 15.8379 31.0644 20.8085 39.6737C20.9169 39.8615 21.0272 40.0473 21.1391 40.231C21.2834 40.4678 21.4305 40.7012 21.5802 40.931C26.639 48.6928 34.7479 52.4102 40.2008 49.262C45.9403 45.9483 46.5637 36.2829 41.5931 27.6737ZM50.8772 55.5427C50.8772 58.8564 53.5635 61.5465 56.8772 61.5465C60.1909 61.5465 62.8772 58.8602 62.8772 55.5465C62.8772 52.2327 60.1909 49.5465 56.8772 49.5465C55.4521 49.5465 54.1429 50.0433 53.1137 50.8732C51.7507 51.9724 50.8784 53.6556 50.8772 55.5427ZM110.874 55.7558C110.875 55.7265 110.875 55.6972 110.876 55.6679C110.877 55.6275 110.877 55.587 110.877 55.5465C110.877 53.567 109.919 51.8114 108.44 50.7186C107.444 49.982 106.211 49.5465 104.877 49.5465C101.563 49.5465 98.8772 52.2327 98.8772 55.5465C98.8772 58.8602 101.563 61.5465 104.877 61.5465C108.121 61.5465 110.763 58.9726 110.874 55.7558ZM56.5624 113.859C63.0389 117.413 71.3343 119.546 80.3772 119.546C101.088 119.546 117.877 108.354 117.877 94.5465C117.877 80.7393 101.088 69.5465 80.3772 69.5465C74.9442 69.5465 69.7811 70.3167 65.1201 71.7023C52.0132 75.5988 42.8772 84.3613 42.8772 94.5465C42.8772 102.325 48.2059 109.274 56.5624 113.859Z" fill="#7F76DC"></path>
<path d="M156 77.5465C156 66.4085 152.206 55.9796 145.597 47.0411C146.128 46.2761 146.641 45.4854 147.135 44.6704L147.622 43.8477C155.777 29.723 154.897 13.8923 145.743 8.13327L145.301 7.86701C135.843 2.40632 121.59 9.33966 113.263 23.3662L112.343 23.021C103.113 19.6199 92.8728 17.6742 82.0811 17.5522L81 17.5465C69.3222 17.5465 58.2678 19.6816 48.4134 23.4905L48.0195 22.8344C39.651 9.16519 25.6392 2.47575 16.3013 7.86701L15.8594 8.13327C6.70518 13.8923 5.82582 29.723 13.9808 43.8477C14.6787 45.0566 15.4206 46.2144 16.1997 47.3179C9.71564 56.1945 6 66.5234 6 77.5465L6.0127 78.6508C6.26969 90.0403 10.4934 100.655 17.6258 109.648L6.07153 206.735C5.39987 212.378 13.1088 214.535 15.5205 209.54L15.6317 209.297L48.8766 131.78C58.3092 135.362 68.8252 137.416 79.9238 137.54L81 137.546C122.098 137.546 155.475 111.102 155.994 78.3217L156 77.5465ZM161.993 78.4262C161.417 115.326 124.663 143.106 82.0166 143.541L81 143.546C70.875 143.546 61.1622 142.034 52.1953 139.261L21.1455 211.662C16.1391 223.334 -1.38779 218.639 0.113281 206.026L11.3809 111.348C4.44983 101.872 0.284435 90.7575 0.0136719 78.7915L0 77.5464C1.33933e-05 66.5539 3.28895 56.244 9.00781 47.2251L8.78418 46.8481C4.13238 38.791 1.95384 30.0097 2.45996 22.1616C2.96286 14.3638 6.24092 6.74694 13.3018 2.67038L13.9609 2.30612C20.8111 -1.3115 28.6793 -0.345652 35.4238 2.93991C41.1412 5.72516 46.5115 10.3476 50.833 16.2632C60.1753 13.215 70.3604 11.5464 81 11.5464L82.1484 11.5532C92.251 11.6673 101.928 13.2865 110.845 16.1596C115.168 10.273 120.533 5.67583 126.241 2.90964C133.188 -0.456801 141.321 -1.3592 148.301 2.67038L148.952 3.06296C155.564 7.22325 158.655 14.6074 159.143 22.1616C159.649 30.0097 157.47 38.791 152.818 46.8481C152.808 46.8666 152.795 46.8844 152.784 46.9028C158.63 55.9979 162 66.4215 162 77.5464L161.993 78.4262Z" fill="#ADC0FF"></path>
<path d="M65.1201 71.7023C52.0132 75.5988 42.8772 84.3613 42.8772 94.5465C42.8772 102.325 48.2059 109.274 56.5624 113.859L71.3851 79.2969C72.5856 76.4978 71.0259 73.2848 68.084 72.4965L65.1201 71.7023Z" fill="#7F76DC"></path>
<path d="M65.1201 71.7023C52.0132 75.5988 42.8772 84.3613 42.8772 94.5465C42.8772 102.325 48.2059 109.274 56.5624 113.859L71.3851 79.2969C72.5856 76.4978 71.0259 73.2848 68.084 72.4965L65.1201 71.7023Z" fill="#7F76DC"></path>
<path d="M53.1137 50.8732C51.7507 51.9724 50.8784 53.6556 50.8772 55.5427C51.8221 54.1596 52.5685 52.5889 53.1137 50.8732ZM41.0425 26.7614C41.2307 27.0598 41.4142 27.364 41.5931 27.6737C46.5637 36.2829 45.9403 45.9483 40.2008 49.262C34.7479 52.4102 26.639 48.6928 21.5802 40.931C21.4999 40.8078 21.4204 40.6836 21.3417 40.5583C21.2736 40.4501 21.206 40.3409 21.1391 40.231C21.0272 40.0473 20.9169 39.8615 20.8085 39.6737C15.8379 31.0644 16.4612 21.3989 22.2008 18.0851C27.7338 14.8907 36.0016 18.7653 41.0425 26.7614Z" fill="#7F76DC"></path>
<path d="M53.1137 50.8732C51.7507 51.9724 50.8784 53.6556 50.8772 55.5427C51.8221 54.1596 52.5685 52.5889 53.1137 50.8732ZM41.0425 26.7614C41.2307 27.0598 41.4142 27.364 41.5931 27.6737C46.5637 36.2829 45.9403 45.9483 40.2008 49.262C34.7479 52.4102 26.639 48.6928 21.5802 40.931C21.4999 40.8078 21.4204 40.6836 21.3417 40.5583C21.2736 40.4501 21.206 40.3409 21.1391 40.231C21.0272 40.0473 20.9169 39.8615 20.8085 39.6737C15.8379 31.0644 16.4612 21.3989 22.2008 18.0851C27.7338 14.8907 36.0016 18.7653 41.0425 26.7614Z" fill="#7F76DC"></path>
<path d="M41.5931 27.6737C46.5637 36.2829 45.9403 45.9483 40.2008 49.262C34.7479 52.4102 26.639 48.6928 21.5802 40.931C21.3142 40.5229 21.0567 40.1037 20.8085 39.6737C15.8379 31.0644 16.4612 21.3989 22.2008 18.0851C27.7338 14.8907 36.0016 18.7653 41.0425 26.7614C41.2307 27.0598 41.4142 27.364 41.5931 27.6737Z" fill="#ADC0FF"></path>
<path d="M41.5931 27.6737C46.5637 36.2829 45.9403 45.9483 40.2008 49.262C34.7479 52.4102 26.639 48.6928 21.5802 40.931C21.3142 40.5229 21.0567 40.1037 20.8085 39.6737C15.8379 31.0644 16.4612 21.3989 22.2008 18.0851C27.7338 14.8907 36.0016 18.7653 41.0425 26.7614C41.2307 27.0598 41.4142 27.364 41.5931 27.6737Z" fill="#ADC0FF"></path>
<path d="M140.538 40.1082C140.421 40.3027 140.302 40.4948 140.181 40.6846C135.135 48.6138 126.912 52.4434 121.402 49.262C115.662 45.9483 115.039 36.2829 120.009 27.6737C120.082 27.5486 120.154 27.4246 120.228 27.3015C120.273 27.2259 120.319 27.1507 120.365 27.0759L120.464 26.9151L120.558 26.7639C120.591 26.7125 120.623 26.6612 120.656 26.6102C125.705 18.7166 133.904 14.9108 139.402 18.0851C145.141 21.3989 145.765 31.0644 140.794 39.6737C140.71 39.8198 140.624 39.9647 140.538 40.1082ZM110.874 55.7558C110.875 55.7265 110.875 55.6972 110.876 55.6679C110.877 55.6275 110.877 55.587 110.877 55.5465C110.877 53.567 109.919 51.8114 108.44 50.7186C109.017 52.5838 109.829 54.2808 110.874 55.7558Z" fill="#7F76DC"></path>
<path d="M140.538 40.1082C140.421 40.3027 140.302 40.4948 140.181 40.6846C135.135 48.6138 126.912 52.4434 121.402 49.262C115.662 45.9483 115.039 36.2829 120.009 27.6737C120.082 27.5486 120.154 27.4246 120.228 27.3015C120.273 27.2259 120.319 27.1507 120.365 27.0759L120.464 26.9151L120.558 26.7639C120.591 26.7125 120.623 26.6612 120.656 26.6102C125.705 18.7166 133.904 14.9108 139.402 18.0851C145.141 21.3989 145.765 31.0644 140.794 39.6737C140.71 39.8198 140.624 39.9647 140.538 40.1082ZM110.874 55.7558C110.875 55.7265 110.875 55.6972 110.876 55.6679C110.877 55.6275 110.877 55.587 110.877 55.5465C110.877 53.567 109.919 51.8114 108.44 50.7186C109.017 52.5838 109.829 54.2808 110.874 55.7558Z" fill="#7F76DC"></path>
<path d="M120.009 27.6737C115.039 36.2829 115.662 45.9483 121.402 49.262C126.912 52.4434 135.135 48.6138 140.181 40.6846C140.391 40.3547 140.595 40.0176 140.794 39.6737C145.765 31.0644 145.141 21.3989 139.402 18.0851C133.904 14.9108 125.705 18.7166 120.656 26.6102C120.434 26.9569 120.219 27.3114 120.009 27.6737Z" fill="#ADC0FF"></path>
<path d="M120.009 27.6737C115.039 36.2829 115.662 45.9483 121.402 49.262C126.912 52.4434 135.135 48.6138 140.181 40.6846C140.391 40.3547 140.595 40.0176 140.794 39.6737C145.765 31.0644 145.141 21.3989 139.402 18.0851C133.904 14.9108 125.705 18.7166 120.656 26.6102C120.434 26.9569 120.219 27.3114 120.009 27.6737Z" fill="#ADC0FF"></path>
<path d="M140.181 40.6846C135.135 48.6138 126.912 52.4434 121.402 49.262C115.662 45.9483 115.039 36.2829 120.009 27.6737C120.082 27.5486 120.154 27.4246 120.228 27.3015C120.273 27.2259 120.319 27.1507 120.365 27.0759L120.464 26.9151L120.558 26.7639C120.591 26.7125 120.623 26.6612 120.656 26.6102C128.154 30.3541 134.766 35.1281 140.181 40.6846ZM41.0425 26.7614C41.2307 27.0598 41.4142 27.364 41.5931 27.6737C46.5637 36.2829 45.9403 45.9483 40.2008 49.262C34.7479 52.4102 26.639 48.6928 21.5802 40.931C26.9675 35.3441 33.5585 30.5379 41.0425 26.7614ZM50.8773 55.5465C50.8784 53.6594 51.7507 51.9724 53.1137 50.8732C54.1429 50.0433 55.4521 49.5465 56.8772 49.5465C60.1909 49.5465 62.8772 52.2327 62.8772 55.5465C62.8772 58.8602 60.1909 61.5465 56.8772 61.5465C53.5635 61.5465 50.8773 58.8602 50.8773 55.5465ZM110.876 55.6679C110.875 55.6972 110.875 55.7265 110.874 55.7558C110.763 58.9726 108.121 61.5465 104.877 61.5465C101.563 61.5465 98.8772 58.8602 98.8772 55.5465C98.8772 52.2327 101.563 49.5465 104.877 49.5465C106.211 49.5465 107.444 49.982 108.44 50.7186C109.919 51.8114 110.877 53.567 110.877 55.5465C110.877 55.587 110.877 55.6275 110.876 55.6679ZM80.3772 119.546C71.3343 119.546 63.0389 117.413 56.5624 113.859C48.2059 109.274 42.8772 102.325 42.8772 94.5465C42.8772 84.3613 52.0132 75.5988 65.1201 71.7023C69.7811 70.3167 74.9442 69.5465 80.3772 69.5465C101.088 69.5465 117.877 80.7393 117.877 94.5465C117.877 108.354 101.088 119.546 80.3772 119.546Z" fill="#7F76DC"></path>
<path d="M140.181 40.6846C135.135 48.6138 126.912 52.4434 121.402 49.262C115.662 45.9483 115.039 36.2829 120.009 27.6737C120.082 27.5486 120.154 27.4246 120.228 27.3015C120.273 27.2259 120.319 27.1507 120.365 27.0759L120.464 26.9151L120.558 26.7639C120.591 26.7125 120.623 26.6612 120.656 26.6102C128.154 30.3541 134.766 35.1281 140.181 40.6846ZM41.0425 26.7614C41.2307 27.0598 41.4142 27.364 41.5931 27.6737C46.5637 36.2829 45.9403 45.9483 40.2008 49.262C34.7479 52.4102 26.639 48.6928 21.5802 40.931C26.9675 35.3441 33.5585 30.5379 41.0425 26.7614ZM50.8773 55.5465C50.8784 53.6594 51.7507 51.9724 53.1137 50.8732C54.1429 50.0433 55.4521 49.5465 56.8772 49.5465C60.1909 49.5465 62.8772 52.2327 62.8772 55.5465C62.8772 58.8602 60.1909 61.5465 56.8772 61.5465C53.5635 61.5465 50.8773 58.8602 50.8773 55.5465ZM110.876 55.6679C110.875 55.6972 110.875 55.7265 110.874 55.7558C110.763 58.9726 108.121 61.5465 104.877 61.5465C101.563 61.5465 98.8772 58.8602 98.8772 55.5465C98.8772 52.2327 101.563 49.5465 104.877 49.5465C106.211 49.5465 107.444 49.982 108.44 50.7186C109.919 51.8114 110.877 53.567 110.877 55.5465C110.877 55.587 110.877 55.6275 110.876 55.6679ZM80.3772 119.546C71.3343 119.546 63.0389 117.413 56.5624 113.859C48.2059 109.274 42.8772 102.325 42.8772 94.5465C42.8772 84.3613 52.0132 75.5988 65.1201 71.7023C69.7811 70.3167 74.9442 69.5465 80.3772 69.5465C101.088 69.5465 117.877 80.7393 117.877 94.5465C117.877 108.354 101.088 119.546 80.3772 119.546Z" fill="#7F76DC"></path>
<path d="M62.8772 55.5465C62.8772 58.8602 60.1909 61.5465 56.8772 61.5465C53.5635 61.5465 50.8773 58.8602 50.8773 55.5465C50.8784 53.6594 51.7507 51.9724 53.1137 50.8732C54.1429 50.0433 55.4521 49.5465 56.8772 49.5465C60.1909 49.5465 62.8772 52.2327 62.8772 55.5465Z" fill="#262626"></path>
<path d="M62.8772 55.5465C62.8772 58.8602 60.1909 61.5465 56.8772 61.5465C53.5635 61.5465 50.8773 58.8602 50.8773 55.5465C50.8784 53.6594 51.7507 51.9724 53.1137 50.8732C54.1429 50.0433 55.4521 49.5465 56.8772 49.5465C60.1909 49.5465 62.8772 52.2327 62.8772 55.5465Z" fill="#262626"></path>
<path d="M110.877 55.5465C110.877 55.6165 110.876 55.6863 110.874 55.7558C110.763 58.9726 108.121 61.5465 104.877 61.5465C101.563 61.5465 98.8772 58.8602 98.8772 55.5465C98.8772 52.2327 101.563 49.5465 104.877 49.5465C106.211 49.5465 107.444 49.982 108.44 50.7186C109.919 51.8114 110.877 53.567 110.877 55.5465Z" fill="#262626"></path>
<path d="M110.877 55.5465C110.877 55.6165 110.876 55.6863 110.874 55.7558C110.763 58.9726 108.121 61.5465 104.877 61.5465C101.563 61.5465 98.8772 58.8602 98.8772 55.5465C98.8772 52.2327 101.563 49.5465 104.877 49.5465C106.211 49.5465 107.444 49.982 108.44 50.7186C109.919 51.8114 110.877 53.567 110.877 55.5465Z" fill="#262626"></path>
<path d="M117.877 99.5464C117.877 113.354 101.088 124.546 80.3772 124.546C71.3343 124.546 63.039 122.413 56.5624 118.859C48.2059 114.274 42.8772 107.325 42.8772 99.5464C42.8772 89.3613 52.0133 80.5987 65.1201 76.7023C69.7811 75.3166 74.9442 74.5464 80.3772 74.5464C101.088 74.5464 117.877 85.7393 117.877 99.5464Z" fill="#ADC0FF"></path>
<path d="M117.877 99.5464C117.877 113.354 101.088 124.546 80.3772 124.546C71.3343 124.546 63.039 122.413 56.5624 118.859C48.2059 114.274 42.8772 107.325 42.8772 99.5464C42.8772 89.3613 52.0133 80.5987 65.1201 76.7023C69.7811 75.3166 74.9442 74.5464 80.3772 74.5464C101.088 74.5464 117.877 85.7393 117.877 99.5464Z" fill="#ADC0FF"></path>
<path d="M65.7532 102.708C66.9535 105.962 69.8682 107.447 72.5999 107.542C73.9724 107.589 75.1401 107.272 75.8958 106.793C76.6091 106.341 76.8772 105.821 76.8772 105.253V101.546H80.8772V105.253C80.8772 107.466 79.6546 109.148 78.0364 110.173C76.4604 111.172 74.4549 111.608 72.4622 111.54C68.4631 111.402 63.8779 109.18 62.0012 104.092L65.7532 102.708Z" fill="#262626"></path>
<path d="M99.7532 104.092C97.8765 109.18 93.2913 111.402 89.2922 111.54C87.2995 111.608 85.294 111.172 83.718 110.173C82.2009 109.212 81.0311 107.674 80.8909 105.663L80.8772 105.253V101.546H84.8772V105.253L84.8899 105.464C84.9509 105.95 85.2344 106.398 85.8586 106.793C86.6143 107.272 87.782 107.589 89.1545 107.542C91.8862 107.447 94.8009 105.962 96.0012 102.708L99.7532 104.092Z" fill="#262626"></path>
<path d="M74.8149 100.046L71.3508 94.0464C68.6566 89.3798 72.0244 83.5464 77.413 83.5464H84.3412C89.7298 83.5464 93.0977 89.3798 90.4034 94.0464L86.9393 100.046C85.9776 101.712 84.501 102.783 82.8771 103.26C81.5754 103.642 80.1789 103.642 78.8771 103.26C77.2532 102.783 75.7767 101.712 74.8149 100.046Z" fill="#262626"></path>
</svg><style>@media (prefers-color-scheme: light) { :root { filter: none; } }
@media (prefers-color-scheme: dark) { :root { filter: none; } }
</style></svg>