<svg xmlns="http://www.w3.org/2000/svg" version="1.1" xmlns:xlink="http://www.w3.org/1999/xlink" width="163" height="219"><svg width="163" height="219" viewBox="0 0 163 219" fill="none" xmlns="http://www.w3.org/2000/svg">
<path d="M127.673 6.06238C134.039 2.97724 141.069 2.34263 146.924 5.72253L147.47 6.05164C153.029 9.54871 155.825 15.8774 156.272 22.8085C156.721 29.7637 154.862 37.6744 150.748 45.0858L150.343 45.8016C150.023 46.3545 149.693 46.8965 149.357 47.4296C155.556 56.4471 159.123 66.8704 159.123 77.9999L159.116 78.828C158.57 113.538 123.765 140.571 82.116 140.995L81.1228 141C70.3191 141 60.0152 139.227 50.6414 136.015L18.5115 210.932C14.8705 219.422 2.12384 216.007 3.21558 206.834L14.6238 110.968C7.36141 101.422 3.1228 90.1326 3.1228 77.9999L3.13452 76.9032C3.35801 66.31 6.81219 56.3824 12.6814 47.7323C12.4753 47.4108 12.272 47.0856 12.072 46.7567L11.5056 45.8016C7.10872 38.186 5.113 29.988 5.57593 22.8085C6.03734 15.654 9.00268 9.14152 14.9246 5.72253L15.4783 5.41589C21.2365 2.37496 28.0494 3.07881 34.2322 6.0907C40.0117 8.90617 45.5202 13.8413 49.7849 20.2841C59.3863 16.8828 69.9891 14.9999 81.1228 14.9999L82.238 15.0067C92.8406 15.1266 102.944 16.9538 112.138 20.1708C116.406 13.763 121.906 8.85693 127.673 6.06238Z" fill="#9E8AFA" stroke="#9FB0FF" stroke-width="6"></path>
<path d="M65.2429 72.1559C52.136 76.0524 43 84.8148 43 95C43 102.779 48.3287 109.727 56.6852 114.312L71.5079 79.7505C72.7084 76.9514 71.1487 73.7384 68.2068 72.9501L65.2429 72.1559Z" fill="#9E8AFA"></path>
<path d="M65.2429 72.1559C52.136 76.0524 43 84.8148 43 95C43 102.779 48.3287 109.727 56.6852 114.312L71.5079 79.7505C72.7084 76.9514 71.1487 73.7384 68.2068 72.9501L65.2429 72.1559Z" fill="#9E8AFA"></path>
<path d="M53.2365 51.3268C51.8735 52.4259 51.0012 54.1091 51 55.9962C51.945 54.6131 52.6914 53.0425 53.2365 51.3268ZM41.1654 27.2149C41.3535 27.5133 41.5371 27.8175 41.7159 28.1272C46.6865 36.7364 46.0631 46.4018 40.3236 49.7156C34.8707 52.8637 26.7618 49.1463 21.703 41.3845C21.6228 41.2613 21.5432 41.1371 21.4645 41.0118C21.3964 40.9035 21.3288 40.7944 21.2619 40.6845C21.15 40.5008 21.0397 40.315 20.9313 40.1272C15.9607 31.5179 16.5841 21.8524 22.3236 18.5387C27.8566 15.3442 36.1245 19.2188 41.1654 27.2149Z" fill="#9E8AFA"></path>
<path d="M53.2365 51.3268C51.8735 52.4259 51.0012 54.1091 51 55.9962C51.945 54.6131 52.6914 53.0425 53.2365 51.3268ZM41.1654 27.2149C41.3535 27.5133 41.5371 27.8175 41.7159 28.1272C46.6865 36.7364 46.0631 46.4018 40.3236 49.7156C34.8707 52.8637 26.7618 49.1463 21.703 41.3845C21.6228 41.2613 21.5432 41.1371 21.4645 41.0118C21.3964 40.9035 21.3288 40.7944 21.2619 40.6845C21.15 40.5008 21.0397 40.315 20.9313 40.1272C15.9607 31.5179 16.5841 21.8524 22.3236 18.5387C27.8566 15.3442 36.1245 19.2188 41.1654 27.2149Z" fill="#9E8AFA"></path>
<path d="M41.7159 28.1272C46.6864 36.7364 46.0631 46.4019 40.3236 49.7156C34.8707 52.8638 26.7618 49.1463 21.703 41.3845C21.437 40.9764 21.1795 40.5572 20.9313 40.1272C15.9607 31.5179 16.5841 21.8524 22.3236 18.5387C27.8566 15.3442 36.1245 19.2189 41.1653 27.215C41.3534 27.5133 41.5371 27.8175 41.7159 28.1272Z" fill="#9FB0FF"></path>
<path d="M41.7159 28.1272C46.6864 36.7364 46.0631 46.4019 40.3236 49.7156C34.8707 52.8638 26.7618 49.1463 21.703 41.3845C21.437 40.9764 21.1795 40.5572 20.9313 40.1272C15.9607 31.5179 16.5841 21.8524 22.3236 18.5387C27.8566 15.3442 36.1245 19.2189 41.1653 27.215C41.3534 27.5133 41.5371 27.8175 41.7159 28.1272Z" fill="#9FB0FF"></path>
<path d="M140.661 40.5617C140.544 40.7562 140.425 40.9483 140.304 41.1382C135.257 49.0674 127.035 52.8969 121.525 49.7156C115.785 46.4018 115.162 36.7364 120.132 28.1272C120.204 28.0022 120.277 27.8782 120.351 27.755C120.396 27.6794 120.442 27.6042 120.487 27.5294L120.587 27.3686L120.681 27.2174C120.714 27.166 120.746 27.1147 120.779 27.0637C125.828 19.1701 134.026 15.3644 139.525 18.5387C145.264 21.8524 145.887 31.5179 140.917 40.1272C140.833 40.2733 140.747 40.4182 140.661 40.5617ZM110.996 56.2093C110.997 56.18 110.998 56.1507 110.999 56.1214C111 56.081 111 56.0405 111 56C111 54.0205 110.041 52.2649 108.563 51.1721C109.14 53.0373 109.952 54.7344 110.996 56.2093Z" fill="#9E8AFA"></path>
<path d="M140.661 40.5617C140.544 40.7562 140.425 40.9483 140.304 41.1382C135.257 49.0674 127.035 52.8969 121.525 49.7156C115.785 46.4018 115.162 36.7364 120.132 28.1272C120.204 28.0022 120.277 27.8782 120.351 27.755C120.396 27.6794 120.442 27.6042 120.487 27.5294L120.587 27.3686L120.681 27.2174C120.714 27.166 120.746 27.1147 120.779 27.0637C125.828 19.1701 134.026 15.3644 139.525 18.5387C145.264 21.8524 145.887 31.5179 140.917 40.1272C140.833 40.2733 140.747 40.4182 140.661 40.5617ZM110.996 56.2093C110.997 56.18 110.998 56.1507 110.999 56.1214C111 56.081 111 56.0405 111 56C111 54.0205 110.041 52.2649 108.563 51.1721C109.14 53.0373 109.952 54.7344 110.996 56.2093Z" fill="#9E8AFA"></path>
<path d="M120.132 28.1272C115.162 36.7364 115.785 46.4019 121.525 49.7156C127.035 52.8969 135.257 49.0673 140.304 41.1382C140.514 40.8082 140.718 40.4711 140.917 40.1272C145.887 31.5179 145.264 21.8524 139.525 18.5387C134.027 15.3644 125.828 19.1702 120.779 27.0637C120.557 27.4104 120.341 27.7649 120.132 28.1272Z" fill="#9FB0FF"></path>
<path d="M120.132 28.1272C115.162 36.7364 115.785 46.4019 121.525 49.7156C127.035 52.8969 135.257 49.0673 140.304 41.1382C140.514 40.8082 140.718 40.4711 140.917 40.1272C145.887 31.5179 145.264 21.8524 139.525 18.5387C134.027 15.3644 125.828 19.1702 120.779 27.0637C120.557 27.4104 120.341 27.7649 120.132 28.1272Z" fill="#9FB0FF"></path>
<path d="M140.304 41.1381C135.257 49.0673 127.035 52.8969 121.525 49.7155C115.785 46.4018 115.162 36.7364 120.132 28.1272C120.204 28.0022 120.277 27.8781 120.351 27.755C120.396 27.6794 120.442 27.6042 120.487 27.5294L120.587 27.3686L120.681 27.2174C120.714 27.166 120.746 27.1147 120.779 27.0637C128.277 30.8076 134.888 35.5816 140.304 41.1381ZM41.1653 27.2149C41.3535 27.5133 41.537 27.8175 41.7159 28.1272C46.6865 36.7364 46.0631 46.4018 40.3236 49.7155C34.8707 52.8637 26.7618 49.1463 21.703 41.3845C27.0903 35.7976 33.6813 30.9914 41.1653 27.2149ZM51 56C51.0012 54.1129 51.8735 52.4259 53.2365 51.3267C54.2657 50.4968 55.5749 50 57 50C60.3137 50 63 52.6862 63 56C63 59.3137 60.3137 62 57 62C53.6863 62 51 59.3137 51 56ZM110.999 56.1214C110.998 56.1507 110.997 56.18 110.996 56.2093C110.886 59.4261 108.244 62 105 62C101.686 62 99 59.3137 99 56C99 52.6862 101.686 50 105 50C106.334 50 107.567 50.4355 108.563 51.1721C110.041 52.2648 111 54.0205 111 56C111 56.0405 111 56.081 110.999 56.1214ZM80.5 120C71.4571 120 63.1617 117.866 56.6852 114.312C48.3287 109.727 43 102.779 43 95C43 84.8148 52.136 76.0523 65.2429 72.1558C69.9039 70.7702 75.067 70 80.5 70C101.211 70 118 81.1928 118 95C118 108.807 101.211 120 80.5 120Z" fill="#9E8AFA"></path>
<path d="M140.304 41.1381C135.257 49.0673 127.035 52.8969 121.525 49.7155C115.785 46.4018 115.162 36.7364 120.132 28.1272C120.204 28.0022 120.277 27.8781 120.351 27.755C120.396 27.6794 120.442 27.6042 120.487 27.5294L120.587 27.3686L120.681 27.2174C120.714 27.166 120.746 27.1147 120.779 27.0637C128.277 30.8076 134.888 35.5816 140.304 41.1381ZM41.1653 27.2149C41.3535 27.5133 41.537 27.8175 41.7159 28.1272C46.6865 36.7364 46.0631 46.4018 40.3236 49.7155C34.8707 52.8637 26.7618 49.1463 21.703 41.3845C27.0903 35.7976 33.6813 30.9914 41.1653 27.2149ZM51 56C51.0012 54.1129 51.8735 52.4259 53.2365 51.3267C54.2657 50.4968 55.5749 50 57 50C60.3137 50 63 52.6862 63 56C63 59.3137 60.3137 62 57 62C53.6863 62 51 59.3137 51 56ZM110.999 56.1214C110.998 56.1507 110.997 56.18 110.996 56.2093C110.886 59.4261 108.244 62 105 62C101.686 62 99 59.3137 99 56C99 52.6862 101.686 50 105 50C106.334 50 107.567 50.4355 108.563 51.1721C110.041 52.2648 111 54.0205 111 56C111 56.0405 111 56.081 110.999 56.1214ZM80.5 120C71.4571 120 63.1617 117.866 56.6852 114.312C48.3287 109.727 43 102.779 43 95C43 84.8148 52.136 76.0523 65.2429 72.1558C69.9039 70.7702 75.067 70 80.5 70C101.211 70 118 81.1928 118 95C118 108.807 101.211 120 80.5 120Z" fill="#9E8AFA"></path>
<path d="M63 56C63 59.3137 60.3137 62 57 62C53.6863 62 51 59.3137 51 56C51.0012 54.113 51.8735 52.4259 53.2365 51.3268C54.2658 50.4968 55.5749 50 57 50C60.3137 50 63 52.6863 63 56Z" fill="#262626"></path>
<path d="M63 56C63 59.3137 60.3137 62 57 62C53.6863 62 51 59.3137 51 56C51.0012 54.113 51.8735 52.4259 53.2365 51.3268C54.2658 50.4968 55.5749 50 57 50C60.3137 50 63 52.6863 63 56Z" fill="#262626"></path>
<path d="M111 56C111 56.0701 110.999 56.1399 110.996 56.2094C110.886 59.4261 108.244 62 105 62C101.686 62 99 59.3137 99 56C99 52.6863 101.686 50 105 50C106.334 50 107.567 50.4355 108.563 51.1721C110.041 52.2649 111 54.0205 111 56Z" fill="#262626"></path>
<path d="M111 56C111 56.0701 110.999 56.1399 110.996 56.2094C110.886 59.4261 108.244 62 105 62C101.686 62 99 59.3137 99 56C99 52.6863 101.686 50 105 50C106.334 50 107.567 50.4355 108.563 51.1721C110.041 52.2649 111 54.0205 111 56Z" fill="#262626"></path>
<path d="M118 100C118 113.807 101.211 125 80.5 125C71.4571 125 63.1618 122.866 56.6852 119.312C48.3287 114.727 43 107.779 43 100C43 89.8149 52.1361 81.0523 65.2429 77.1559C69.9039 75.7702 75.067 75 80.5 75C101.211 75 118 86.1929 118 100Z" fill="#9FB0FF"></path>
<path d="M118 100C118 113.807 101.211 125 80.5 125C71.4571 125 63.1618 122.866 56.6852 119.312C48.3287 114.727 43 107.779 43 100C43 89.8149 52.1361 81.0523 65.2429 77.1559C69.9039 75.7702 75.067 75 80.5 75C101.211 75 118 86.1929 118 100Z" fill="#9FB0FF"></path>
<path d="M65.876 103.161C67.0763 106.415 69.991 107.901 72.7227 107.995C74.0952 108.042 75.2629 107.726 76.0186 107.247C76.7319 106.795 77 106.275 77 105.707V102H81V105.707C81 107.92 79.7774 109.602 78.1592 110.627C76.5832 111.625 74.5777 112.062 72.585 111.993C68.5859 111.855 64.0007 109.633 62.124 104.546L65.876 103.161Z" fill="#262626"></path>
<path d="M99.876 104.546C97.9993 109.633 93.4141 111.855 89.415 111.993C87.4223 112.062 85.4168 111.625 83.8408 110.627C82.3237 109.666 81.1539 108.128 81.0137 106.116L81 105.707V102H85V105.707L85.0127 105.918C85.0737 106.404 85.3572 106.852 85.9814 107.247C86.7371 107.726 87.9048 108.042 89.2773 107.995C92.009 107.901 94.9237 106.415 96.124 103.161L99.876 104.546Z" fill="#262626"></path>
<path d="M74.9378 100.5L71.4737 94.5C68.7794 89.8334 72.1473 84 77.5359 84H84.4641C89.8527 84 93.2206 89.8334 90.5263 94.5L87.0622 100.5C86.1005 102.166 84.6239 103.237 83 103.713C81.6982 104.096 80.3018 104.096 79 103.713C77.3761 103.237 75.8995 102.166 74.9378 100.5Z" fill="#262626"></path>
</svg><style>@media (prefers-color-scheme: light) { :root { filter: none; } }
@media (prefers-color-scheme: dark) { :root { filter: none; } }
</style></svg>