<svg xmlns="http://www.w3.org/2000/svg" width="512" height="512" fill="none" viewBox="0 0 512 512"><path fill="#7F76DC" d="M394.769 95.3984C395.052 94.9533 395.331 94.5027 395.606 94.0467C395.808 93.7101 396.009 93.3704 396.207 93.0278C407.862 72.8406 406.4 50.1766 392.942 42.4065C380.05 34.9633 360.826 43.8872 348.986 62.3962C348.91 62.5159 348.833 62.6361 348.757 62.7566L348.535 63.1112L348.303 63.4882C348.196 63.6636 348.089 63.84 347.983 64.0172C347.81 64.306 347.639 64.5968 347.47 64.8899C335.815 85.0771 337.277 107.741 350.735 115.511C363.655 122.971 382.936 113.991 394.769 95.3984ZM406.775 18.4468C384.597 5.64241 351.176 21.8999 331.65 54.7895C308.736 46.0411 283.083 41.1434 256 41.1434C228.618 41.1434 202.697 46.1499 179.59 55.0812C160.089 21.9961 126.536 5.60461 104.293 18.4468C81.8624 31.3968 79.4263 69.1699 98.8516 102.815C100.488 105.65 102.228 108.365 104.055 110.952C88.8506 131.766 80.138 155.986 80.138 181.833C80.138 209.519 90.1349 235.338 107.398 257.105L80.3058 484.757C78.7059 498.2 97.3866 503.206 102.723 490.764L180.676 309.001C203.508 317.671 229.046 322.522 256 322.522C353.126 322.522 431.862 259.534 431.862 181.833C431.862 155.716 422.967 131.262 407.468 110.303C409.129 107.912 410.716 105.414 412.216 102.815C431.642 69.1699 429.205 31.3968 406.775 18.4468ZM163.598 64.8899C163.178 64.1637 162.748 63.4504 162.307 62.7508C150.487 44.0014 131.1 34.9161 118.126 42.4065C104.668 50.1766 103.206 72.8406 114.861 93.0278C115.116 93.4683 115.374 93.9039 115.637 94.3347C115.975 94.89 116.32 95.4373 116.671 95.976C128.533 114.176 147.547 122.893 160.333 115.511C173.791 107.741 175.253 85.0771 163.598 64.8899ZM185.367 130.238C185.367 138.008 191.666 144.316 199.436 144.316C207.206 144.316 213.505 138.017 213.505 130.247C213.505 122.477 207.206 116.178 199.436 116.178C196.095 116.178 193.025 117.343 190.611 119.289C187.415 121.866 185.37 125.813 185.367 130.238ZM326.048 130.738C326.051 130.669 326.052 130.6 326.054 130.532C326.056 130.437 326.057 130.342 326.057 130.247C326.057 125.605 323.809 121.489 320.343 118.926C318.006 117.199 315.116 116.178 311.988 116.178C304.218 116.178 297.919 122.477 297.919 130.247C297.919 138.017 304.218 144.316 311.988 144.316C319.594 144.316 325.79 138.28 326.048 130.738ZM198.698 266.979C213.884 275.312 233.335 280.316 254.54 280.316C303.102 280.316 342.47 254.07 342.47 221.695C342.47 189.32 303.102 163.074 254.54 163.074C241.8 163.074 229.693 164.88 218.764 168.129C188.031 177.266 166.609 197.812 166.609 221.695C166.609 239.934 179.103 256.228 198.698 266.979Z"/><path fill="#ADC0FF" d="M431.862 181.833C431.862 155.716 422.967 131.262 407.468 110.303C408.714 108.509 409.917 106.655 411.074 104.744L412.216 102.815C431.338 69.6952 429.276 32.5751 407.811 19.0711L406.775 18.4468C384.597 5.64241 351.176 21.8999 331.65 54.7895L329.493 53.9801C307.852 46.0053 283.84 41.4429 258.535 41.1569L256 41.1434C228.618 41.1434 202.697 46.1499 179.59 55.0812L178.666 53.5428C159.044 21.4908 126.189 5.80521 104.293 18.4468L103.257 19.0711C81.7916 32.5751 79.7296 69.6952 98.8516 102.815C100.488 105.65 102.228 108.365 104.055 110.952C88.8506 131.766 80.138 155.986 80.138 181.833L80.1678 184.422C80.7704 211.129 90.6743 236.018 107.398 257.105L80.3058 484.757C78.7308 497.99 96.8069 503.047 102.462 491.334L102.723 490.764L180.676 309.001C202.794 317.4 227.452 322.216 253.476 322.508L256 322.522C352.367 322.522 430.631 260.514 431.848 183.651L431.862 181.833ZM445.915 183.896C444.564 270.419 358.383 335.559 258.384 336.58L256 336.591C232.259 336.591 209.484 333.045 188.458 326.543L115.652 496.309C103.912 523.679 62.815 512.67 66.3347 483.095L92.7552 261.092C76.5032 238.872 66.736 212.811 66.1011 184.752L66.0691 181.833C66.0691 156.057 73.7811 131.882 87.1908 110.735L86.6665 109.851C75.7588 90.9581 70.6505 70.3674 71.8373 51.9651C73.0165 33.6806 80.703 15.8204 97.2594 6.26158L98.805 5.40746C114.867 -3.07524 133.317 -0.810493 149.132 6.89358C162.538 13.4245 175.131 24.2632 185.264 38.1343C207.17 30.9868 231.052 27.0742 256 27.0742L258.693 27.0902C282.382 27.3579 305.073 31.1546 325.981 37.8915C336.118 24.0884 348.698 13.3088 362.083 6.8226C378.372 -1.07112 397.442 -3.18709 413.808 6.26158L415.336 7.1821C430.84 16.9373 438.088 34.2519 439.231 51.9651C440.417 70.3674 435.309 90.9581 424.401 109.851C424.376 109.894 424.346 109.936 424.321 109.979C438.029 131.305 445.931 155.747 445.931 181.833L445.915 183.896Z"/><path fill="#7F76DC" d="M218.764 168.129C188.031 177.266 166.609 197.812 166.609 221.695C166.609 239.934 179.103 256.228 198.698 266.979L233.455 185.937C236.27 179.374 232.612 171.84 225.714 169.992L218.764 168.129Z"/><path fill="#7F76DC" d="M218.764 168.129C188.031 177.266 166.609 197.812 166.609 221.695C166.609 239.934 179.103 256.228 198.698 266.979L233.455 185.937C236.27 179.374 232.612 171.84 225.714 169.992L218.764 168.129Z"/><path fill="#7F76DC" d="M190.611 119.289C187.415 121.866 185.37 125.813 185.367 130.238C187.583 126.995 189.333 123.312 190.611 119.289ZM162.307 62.7508C162.748 63.4504 163.178 64.1637 163.598 64.8899C175.253 85.0771 173.791 107.741 160.333 115.511C147.547 122.893 128.533 114.176 116.671 95.976C116.483 95.6872 116.296 95.3959 116.112 95.1022C115.952 94.8483 115.793 94.5923 115.637 94.3347C115.374 93.9039 115.116 93.4683 114.861 93.0278C103.206 72.8406 104.668 50.1766 118.126 42.4065C131.1 34.9161 150.487 44.0014 162.307 62.7508Z"/><path fill="#7F76DC" d="M190.611 119.289C187.415 121.866 185.37 125.813 185.367 130.238C187.583 126.995 189.333 123.312 190.611 119.289ZM162.307 62.7508C162.748 63.4504 163.178 64.1637 163.598 64.8899C175.253 85.0771 173.791 107.741 160.333 115.511C147.547 122.893 128.533 114.176 116.671 95.976C116.483 95.6872 116.296 95.3959 116.112 95.1022C115.952 94.8483 115.793 94.5923 115.637 94.3347C115.374 93.9039 115.116 93.4683 114.861 93.0278C103.206 72.8406 104.668 50.1766 118.126 42.4065C131.1 34.9161 150.487 44.0014 162.307 62.7508Z"/><path fill="#ADC0FF" d="M163.598 64.8899C175.253 85.0771 173.791 107.741 160.333 115.511C147.547 122.893 128.533 114.176 116.671 95.976C116.047 95.0191 115.443 94.0361 114.861 93.0278C103.206 72.8406 104.668 50.1766 118.126 42.4065C131.1 34.9161 150.487 44.0014 162.307 62.7508C162.748 63.4504 163.178 64.1637 163.598 64.8899Z"/><path fill="#ADC0FF" d="M163.598 64.8899C175.253 85.0771 173.791 107.741 160.333 115.511C147.547 122.893 128.533 114.176 116.671 95.976C116.047 95.0191 115.443 94.0361 114.861 93.0278C103.206 72.8406 104.668 50.1766 118.126 42.4065C131.1 34.9161 150.487 44.0014 162.307 62.7508C162.748 63.4504 163.178 64.1637 163.598 64.8899Z"/><path fill="#7F76DC" d="M395.606 94.0467C395.331 94.5027 395.052 94.9533 394.769 95.3984C382.936 113.991 363.655 122.971 350.735 115.511C337.277 107.741 335.815 85.0771 347.47 64.8899C347.639 64.5968 347.81 64.306 347.983 64.0172C348.089 63.84 348.196 63.6636 348.303 63.4882L348.535 63.1112L348.757 62.7566C348.833 62.6361 348.91 62.5159 348.986 62.3962C360.826 43.8872 380.05 34.9633 392.942 42.4065C406.4 50.1766 407.862 72.8406 396.207 93.0278C396.009 93.3704 395.808 93.7101 395.606 94.0467ZM326.048 130.738C326.051 130.669 326.052 130.6 326.054 130.532C326.056 130.437 326.057 130.342 326.057 130.247C326.057 125.605 323.809 121.489 320.343 118.926C321.695 123.3 323.599 127.279 326.048 130.738Z"/><path fill="#7F76DC" d="M395.606 94.0467C395.331 94.5027 395.052 94.9533 394.769 95.3984C382.936 113.991 363.655 122.971 350.735 115.511C337.277 107.741 335.815 85.0771 347.47 64.8899C347.639 64.5968 347.81 64.306 347.983 64.0172C348.089 63.84 348.196 63.6636 348.303 63.4882L348.535 63.1112L348.757 62.7566C348.833 62.6361 348.91 62.5159 348.986 62.3962C360.826 43.8872 380.05 34.9633 392.942 42.4065C406.4 50.1766 407.862 72.8406 396.207 93.0278C396.009 93.3704 395.808 93.7101 395.606 94.0467ZM326.048 130.738C326.051 130.669 326.052 130.6 326.054 130.532C326.056 130.437 326.057 130.342 326.057 130.247C326.057 125.605 323.809 121.489 320.343 118.926C321.695 123.3 323.599 127.279 326.048 130.738Z"/><path fill="#ADC0FF" d="M347.47 64.8899C335.815 85.0771 337.277 107.741 350.735 115.511C363.655 122.971 382.936 113.991 394.769 95.3984C395.261 94.6247 395.741 93.8343 396.207 93.0278C407.862 72.8406 406.4 50.1766 392.942 42.4065C380.05 34.9633 360.826 43.8872 348.986 62.3962C348.466 63.2091 347.961 64.0406 347.47 64.8899Z"/><path fill="#ADC0FF" d="M347.47 64.8899C335.815 85.0771 337.277 107.741 350.735 115.511C363.655 122.971 382.936 113.991 394.769 95.3984C395.261 94.6247 395.741 93.8343 396.207 93.0278C407.862 72.8406 406.4 50.1766 392.942 42.4065C380.05 34.9633 360.826 43.8872 348.986 62.3962C348.466 63.2091 347.961 64.0406 347.47 64.8899Z"/><path fill="#7F76DC" d="M394.769 95.3984C382.936 113.991 363.655 122.971 350.735 115.511C337.277 107.741 335.815 85.0771 347.47 64.8899C347.639 64.5968 347.81 64.306 347.983 64.0172C348.089 63.84 348.196 63.6636 348.303 63.4882L348.535 63.1112L348.757 62.7566C348.833 62.6361 348.91 62.5159 348.986 62.3962C366.568 71.175 382.071 82.3693 394.769 95.3984ZM162.307 62.7508C162.748 63.4504 163.178 64.1637 163.598 64.8899C175.253 85.0771 173.791 107.741 160.333 115.511C147.547 122.893 128.533 114.176 116.671 95.976C129.303 82.8756 144.758 71.6061 162.307 62.7508ZM185.367 130.247C185.37 125.822 187.415 121.866 190.611 119.289C193.025 117.343 196.095 116.178 199.436 116.178C207.206 116.178 213.505 122.477 213.505 130.247C213.505 138.017 207.206 144.316 199.436 144.316C191.666 144.316 185.367 138.017 185.367 130.247ZM326.054 130.532C326.052 130.6 326.051 130.669 326.048 130.738C325.79 138.28 319.594 144.316 311.988 144.316C304.218 144.316 297.919 138.017 297.919 130.247C297.919 122.477 304.218 116.178 311.988 116.178C315.116 116.178 318.006 117.199 320.343 118.926C323.809 121.489 326.057 125.605 326.057 130.247C326.057 130.342 326.056 130.437 326.054 130.532ZM254.54 280.316C233.335 280.316 213.884 275.312 198.698 266.979C179.103 256.228 166.609 239.934 166.609 221.695C166.609 197.812 188.031 177.266 218.764 168.129C229.693 164.88 241.8 163.074 254.54 163.074C303.102 163.074 342.47 189.32 342.47 221.695C342.47 254.07 303.102 280.316 254.54 280.316Z"/><path fill="#7F76DC" d="M394.769 95.3984C382.936 113.991 363.655 122.971 350.735 115.511C337.277 107.741 335.815 85.0771 347.47 64.8899C347.639 64.5968 347.81 64.306 347.983 64.0172C348.089 63.84 348.196 63.6636 348.303 63.4882L348.535 63.1112L348.757 62.7566C348.833 62.6361 348.91 62.5159 348.986 62.3962C366.568 71.175 382.071 82.3693 394.769 95.3984ZM162.307 62.7508C162.748 63.4504 163.178 64.1637 163.598 64.8899C175.253 85.0771 173.791 107.741 160.333 115.511C147.547 122.893 128.533 114.176 116.671 95.976C129.303 82.8756 144.758 71.6061 162.307 62.7508ZM185.367 130.247C185.37 125.822 187.415 121.866 190.611 119.289C193.025 117.343 196.095 116.178 199.436 116.178C207.206 116.178 213.505 122.477 213.505 130.247C213.505 138.017 207.206 144.316 199.436 144.316C191.666 144.316 185.367 138.017 185.367 130.247ZM326.054 130.532C326.052 130.6 326.051 130.669 326.048 130.738C325.79 138.28 319.594 144.316 311.988 144.316C304.218 144.316 297.919 138.017 297.919 130.247C297.919 122.477 304.218 116.178 311.988 116.178C315.116 116.178 318.006 117.199 320.343 118.926C323.809 121.489 326.057 125.605 326.057 130.247C326.057 130.342 326.056 130.437 326.054 130.532ZM254.54 280.316C233.335 280.316 213.884 275.312 198.698 266.979C179.103 256.228 166.609 239.934 166.609 221.695C166.609 197.812 188.031 177.266 218.764 168.129C229.693 164.88 241.8 163.074 254.54 163.074C303.102 163.074 342.47 189.32 342.47 221.695C342.47 254.07 303.102 280.316 254.54 280.316Z"/><path fill="#262626" d="M213.505 130.247C213.505 138.017 207.206 144.316 199.436 144.316C191.666 144.316 185.367 138.017 185.367 130.247C185.37 125.822 187.415 121.866 190.611 119.289C193.025 117.343 196.095 116.178 199.436 116.178C207.206 116.178 213.505 122.477 213.505 130.247Z"/><path fill="#262626" d="M213.505 130.247C213.505 138.017 207.206 144.316 199.436 144.316C191.666 144.316 185.367 138.017 185.367 130.247C185.37 125.822 187.415 121.866 190.611 119.289C193.025 117.343 196.095 116.178 199.436 116.178C207.206 116.178 213.505 122.477 213.505 130.247Z"/><path fill="#262626" d="M326.057 130.247C326.057 130.411 326.054 130.575 326.048 130.738C325.79 138.28 319.594 144.316 311.988 144.316C304.218 144.316 297.919 138.017 297.919 130.247C297.919 122.477 304.218 116.178 311.988 116.178C315.116 116.178 318.006 117.199 320.343 118.926C323.809 121.489 326.057 125.605 326.057 130.247Z"/><path fill="#262626" d="M326.057 130.247C326.057 130.411 326.054 130.575 326.048 130.738C325.79 138.28 319.594 144.316 311.988 144.316C304.218 144.316 297.919 138.017 297.919 130.247C297.919 122.477 304.218 116.178 311.988 116.178C315.116 116.178 318.006 117.199 320.343 118.926C323.809 121.489 326.057 125.605 326.057 130.247Z"/><path fill="#ADC0FF" d="M342.47 233.419C342.47 265.794 303.102 292.039 254.54 292.039C233.336 292.039 213.884 287.036 198.698 278.703C179.103 267.952 166.609 251.658 166.609 233.419C166.609 209.537 188.031 188.99 218.764 179.853C229.693 176.604 241.8 174.798 254.54 174.798C303.102 174.798 342.47 201.044 342.47 233.419Z"/><path fill="#ADC0FF" d="M342.47 233.419C342.47 265.794 303.102 292.039 254.54 292.039C233.336 292.039 213.884 287.036 198.698 278.703C179.103 267.952 166.609 251.658 166.609 233.419C166.609 209.537 188.031 188.99 218.764 179.853C229.693 176.604 241.8 174.798 254.54 174.798C303.102 174.798 342.47 201.044 342.47 233.419Z"/><path fill="#262626" d="M220.249 240.831C223.063 248.461 229.898 251.945 236.303 252.166C239.521 252.277 242.259 251.535 244.031 250.412C245.704 249.352 246.333 248.132 246.333 246.801V238.109H255.712V246.801C255.712 251.99 252.845 255.933 249.051 258.337C245.355 260.678 240.653 261.702 235.98 261.541C226.603 261.218 215.852 256.008 211.451 244.078L220.249 240.831Z"/><path fill="#262626" d="M299.973 244.078C295.572 256.008 284.821 261.218 275.444 261.541C270.771 261.702 266.069 260.678 262.373 258.337C258.816 256.084 256.073 252.478 255.744 247.76L255.712 246.801V238.109H265.091V246.801L265.121 247.295C265.264 248.435 265.929 249.485 267.393 250.412C269.164 251.535 271.903 252.277 275.121 252.166C281.526 251.945 288.361 248.461 291.175 240.831L299.973 244.078Z"/><path fill="#262626" d="M241.497 234.591L233.374 220.522C227.057 209.58 234.954 195.902 247.589 195.902H263.835C276.47 195.902 284.367 209.58 278.049 220.522L269.927 234.591C267.671 238.497 264.209 241.009 260.401 242.126C257.349 243.022 254.075 243.022 251.022 242.126C247.214 241.009 243.752 238.497 241.497 234.591Z"/></svg>